# xmcd CD database file
#
# Track frame offsets:
#	150
#	17869
#	33800
#	47448
#	57871
#	74155
#	89408
#	101636
#	113737
#	126968
#	145704
#	163622
#	177263
#	189514
#	202640
#	218650
#
# Disc length: 3066 seconds
#
# Revision: 0
# Processed by: cddbd v1.5.2PL0 Copyright (c) Steve Scherf et al.
# Submitted via: ACXtractor (MTCDDB.DLL V2003.07.15)
#
DISCID=d90bf810
DTITLE=Kieth Jamieson - A Picture of Australia
DYEAR=2001
DGENRE=Country
TTITLE0=A Picture of Australia
TTITLE1=I did it my Way
TTITLE2=The Blue Gumtree Ball
TTITLE3=Gibson Express/ Alisha Smith
TTITLE4=May we Never Forget
TTITLE5=Carve a Cross for me on a Bottle Tree
TTITLE6=Ghosts of the Golden Mile
TTITLE7=Warrigal Creek/ Alisha Smith
TTITLE8=I'm Goin' back to the Barcoo
TTITLE9=Bush Ballads Forever
TTITLE10=The Early Morning Country
TTITLE11=Blackwater Junction/ Alisha Smith
TTITLE12=Browny
TTITLE13=My People
TTITLE14=Good Morning Australia
TTITLE15=The Roma Oil Rig Man
EXTD=ID3G:   2 YEAR: 2001
EXTT0=
EXTT1=
EXTT2=
EXTT3=
EXTT4=
EXTT5=
EXTT6=
EXTT7=
EXTT8=
EXTT9=
EXTT10=
EXTT11=
EXTT12=
EXTT13=
EXTT14=
EXTT15=
PLAYORDER=
